<svg xmlns="http://www.w3.org/2000/svg" xmlns:xlink="http://www.w3.org/1999/xlink" width="96" height="161" viewBox="0 0 96 161"><svg viewBox="0 0 96 96" enable-background="new 0 0 96 96" width="96" height="96" id="close" y="0"><path fill="#222" d="M81.6 0L48 33.6 14.4 0 0 14.4 33.6 48 0 81.6 14.4 96 48 62.4 81.6 96 96 81.6 62.4 48 96 14.4 81.6 0z"/></svg><svg viewBox="0 0 96 65" enable-background="new 0 0 96 65" width="96" height="65" id="il7-logo" y="96"><path fill-rule="evenodd" clip-rule="evenodd" fill="#EF554F" d="M9 0h11.6l-9 65H0L9 0z"/><path fill-rule="evenodd" clip-rule="evenodd" fill="#F2CA00" d="M32.1 0h11.6l-7.3 53.4h28.7L63.5 65H23.3l8.8-65z"/><path fill-rule="evenodd" clip-rule="evenodd" fill="#00D99F" d="M86.6 65H75l7.3-53.4H53.6L55.2 0h40.3l-8.9 65z"/></svg></svg>